<svg id="Lager_1" data-name="Lager 1" xmlns="http://www.w3.org/2000/svg" xmlns:xlink="http://www.w3.org/1999/xlink" viewBox="0 0 559.39 115.05"><defs><style>.cls-1{fill:none;}.cls-2{fill:#0b0;}.cls-3{clip-path:url(#clip-path);}.cls-4{fill:#fff;}</style><clipPath id="clip-path" transform="translate(-20.31 -14.97)"><rect class="cls-1" x="20.31" y="14.97" width="559.39" height="115.06"/></clipPath></defs><polygon class="cls-2" points="31.37 31.37 0 62.74 31.37 62.74 62.73 31.37 31.37 31.37"/><polygon class="cls-2" points="31.37 0 0 31.37 31.37 31.37 62.73 0 31.37 0"/><polygon class="cls-2" points="31.37 62.74 0 94.1 31.37 94.1 62.73 62.74 31.37 62.74"/><g class="cls-3"><path class="cls-4" d="M509.58,98.72c7.26,7.38,21.19,11.66,35.71,11.66,19.64,0,34.41-7.14,34.41-21.78,0-14.29-14.05-17-30.12-18.93-13.57-1.54-17.74-1.9-17.74-5.35,0-3.22,4.28-5.24,12.38-5.24,9.76,0,18.21,3,23.93,8.21L578,55.86C571.72,49.79,559.93,45,545.17,45,525.29,45,513,53.6,513,66.46c0,13.45,12.5,16.43,27.5,18.33,14.05,1.67,20,1.67,20,5.83,0,3.93-5.24,5.6-13.81,5.6-10.71,0-20.6-3.33-28.09-10.24ZM450.3,77.41c0-9.88,8.45-17,19.4-17,10.48,0,19.28,6.19,19.28,17.38S480.18,95,469.7,95c-10.95,0-19.4-7-19.4-16.91Zm.59,24.52c4.29,4.65,12.26,8.45,22.74,8.45,21.43,0,33.93-14.76,33.93-32.61S495.06,45,473.63,45c-10.48,0-18.45,3.93-22.74,8.45V46.34H431.84V130h19.05ZM398.75,85c0,7.26-10.83,11.43-20.59,11.43-7.38,0-11.55-2.15-11.55-6.19s3.33-5.72,9.88-6.31l22.26-2.26ZM374.7,110.38c11.08,0,20.12-3.21,25.84-8.21,3.21,6,10.83,9.52,24.76,6.91V95c-6.67,1.43-8.1-.12-8.1-3.45V68.72C417.2,53,405.42,45,385.42,45c-17.26,0-31.07,7.5-35,18.81l17.14,4.64c1.91-4.88,8.45-8.45,17-8.45,10.13,0,14.17,3.81,14.17,8.57V69l-25,2.26C359,72.65,348.16,78.72,348.16,91s11.07,19.4,26.54,19.4M272.81,77.77c0,19.28,15.83,32.61,37.73,32.61,18.69,0,30.72-10.23,34.17-20.47l-16.43-7.26c-2.14,6.67-8.57,12.26-17.86,12.26-10.95,0-19-6.55-19-17.14s8.09-17.14,19-17.14c9.29,0,15.72,5.59,17.86,12.14l16.43-7C341.37,55.39,329.23,45,310.54,45c-21.9,0-37.73,13.33-37.73,32.74m-8.46-31.43H245.3V77.65c0,10.36-5.71,16.31-16,16.31-9.76,0-14.52-5.48-14.52-15.48V46.34H195.78V82.41c0,17.38,11.07,28,27.15,28,10.12,0,17.61-3.68,22.37-8.8v7.5h19.05ZM151.62,59.79c10,0,16.19,6,17,11.19H133.53c2.62-7.38,9.76-11.19,18.09-11.19m.6,35.48c-9.77,0-17-4.65-19.17-12.62h54.76V77.41c0-17.86-13.09-32.38-35.59-32.38-22.15,0-37.74,14-37.74,32.62,0,19.52,15.59,32.73,37.85,32.73,16.43,0,29.88-7.85,34.41-18.92L170,85.38c-2.74,6.08-9.4,9.89-17.73,9.89" transform="translate(-20.31 -14.97)"/></g></svg>